<svg width="104" height="20" xmlns="http://www.w3.org/2000/svg"><path d="M9.755 13.29h3.15c1.036 0 1.778-.224 2.324-.714.532-.476.826-1.176.826-1.918 0-.686-.252-1.344-.672-1.764-.294-.308-.588-.448-1.218-.588.364-.224.518-.35.672-.56.21-.336.35-.826.35-1.33 0-.77-.322-1.498-.84-1.904-.476-.378-1.204-.56-2.282-.56h-2.31zm1.82-5.446V5.422h.546c.91 0 1.386.406 1.386 1.204 0 .812-.476 1.218-1.414 1.218zm0 3.976V9.23h.686c.756 0 1.05.056 1.372.266.35.21.546.588.546 1.036 0 .868-.588 1.288-1.82 1.288zm11.69-.504l.798 1.974h1.946l-3.92-9.534h-1.372l-4.046 9.534h1.932l.84-1.974zm-.574-1.47h-2.66l1.358-3.36zm4.424 3.444h3.15c1.036 0 1.778-.224 2.324-.714.532-.476.826-1.176.826-1.918 0-.686-.252-1.344-.672-1.764-.294-.308-.588-.448-1.218-.588.364-.224.518-.35.672-.56.21-.336.35-.826.35-1.33 0-.77-.322-1.498-.84-1.904-.476-.378-1.204-.56-2.282-.56h-2.31zm1.82-5.446V5.422h.546c.91 0 1.386.406 1.386 1.204 0 .812-.476 1.218-1.414 1.218zm0 3.976V9.23h.686c.756 0 1.05.056 1.372.266.35.21.546.588.546 1.036 0 .868-.588 1.288-1.82 1.288zm8.232-2.814v4.284h1.82V9.006l3.276-5.054h-2.17L38.119 7.2l-2.016-3.248h-2.156zm6.09 4.284h3.15c1.036 0 1.778-.224 2.324-.714.532-.476.826-1.176.826-1.918 0-.686-.252-1.344-.672-1.764-.294-.308-.588-.448-1.218-.588.364-.224.518-.35.672-.56.21-.336.35-.826.35-1.33 0-.77-.322-1.498-.84-1.904-.476-.378-1.204-.56-2.282-.56h-2.31zm1.82-5.446V5.422h.546c.91 0 1.386.406 1.386 1.204 0 .812-.476 1.218-1.414 1.218zm0 3.976V9.23h.686c.756 0 1.05.056 1.372.266.35.21.546.588.546 1.036 0 .868-.588 1.288-1.82 1.288zm7.98-7.868h-1.82v5.712c0 1.092.21 1.862.686 2.492.644.84 1.792 1.344 3.066 1.344 1.274 0 2.422-.504 3.066-1.344.476-.63.686-1.4.686-2.492V3.952h-1.82V9.3c0 .952-.056 1.26-.294 1.666-.308.532-.938.868-1.638.868s-1.33-.336-1.638-.868c-.238-.406-.294-.714-.294-1.666zm7.322 9.338h1.834l.938-5.754 2.478 5.88h.504l2.562-5.88.84 5.754h1.834l-1.554-9.506h-1.26l-2.646 6.104-2.548-6.104h-1.246zm14.476-3.458h1.176c1.106 0 1.862-.266 2.394-.826.476-.518.756-1.274.756-2.086 0-.896-.35-1.708-.952-2.254-.588-.518-1.246-.714-2.464-.714h-2.73v9.338h1.82zm0-1.582V5.534h.63c.672 0 1.064.084 1.344.294.294.224.476.63.476 1.078 0 .896-.574 1.344-1.708 1.344zm8.232 3.458l1.624-1.722c1.19-1.26 1.694-2.226 1.694-3.262 0-1.736-1.4-3.01-3.29-3.01-1.89 0-3.15 1.218-3.276 3.15h1.946c.042-.966.546-1.54 1.386-1.54.784 0 1.414.616 1.414 1.414 0 .784-.448 1.498-2.142 3.43l-2.758 3.122h6.79v-1.582zm8.274-7.994c-1.022 0-1.974.518-2.66 1.428-.63.854-.966 2.044-.966 3.402 0 1.526.308 2.632.966 3.556.658.91 1.624 1.428 2.66 1.428 1.022 0 1.988-.532 2.646-1.428.644-.91.966-2.044.966-3.486 0-1.442-.322-2.576-.966-3.472-.672-.91-1.624-1.428-2.646-1.428zm0 1.61c1.05 0 1.792 1.372 1.792 3.29 0 1.932-.742 3.304-1.792 3.304-1.064 0-1.806-1.372-1.806-3.346 0-1.876.756-3.248 1.806-3.248z" fill="#fff"/></svg>