<svg width="56" height="20" xmlns="http://www.w3.org/2000/svg"><path d="M3.269 3.672h-1.05v6.006c0 1.022.168 1.638.616 2.212.602.798 1.638 1.288 2.716 1.288 1.064 0 2.086-.49 2.702-1.288.448-.574.616-1.204.616-2.212V3.672h-1.05v5.726c0 .966-.07 1.386-.308 1.792-.364.588-1.162 1.008-1.96 1.008-.812 0-1.61-.42-1.974-1.008-.238-.406-.308-.826-.308-1.792zm10.808 4.452c-.364-.714-.882-1.05-1.596-1.05-.966 0-1.694.7-1.694 1.624 0 .77.336 1.106 1.68 1.694.728.308.938.518.938.966 0 .518-.406.91-.952.91-.546 0-.826-.238-1.162-.938l-.882.364c.378.98 1.064 1.484 2.03 1.484 1.134 0 1.988-.812 1.988-1.89 0-.546-.224-.966-.644-1.274-.266-.196-.434-.28-1.106-.56-.742-.308-.938-.49-.938-.826 0-.35.322-.644.7-.644.35 0 .602.182.812.574zm6.902 2.184v-.168c0-1.848-1.092-3.066-2.772-3.066-1.666 0-2.814 1.246-2.814 3.066 0 1.792 1.176 3.038 2.856 3.038 1.176 0 2.03-.518 2.674-1.652l-.84-.476c-.56.896-1.022 1.218-1.792 1.218-1.05 0-1.792-.77-1.848-1.96zm-4.466-.84c.14-.868.868-1.498 1.708-1.498.854 0 1.526.588 1.708 1.498zM30.345 7.62c-.602-.392-1.12-.546-1.806-.546-1.75 0-3.094 1.33-3.094 3.066 0 1.708 1.344 3.038 3.08 3.038.672 0 1.148-.154 1.862-.602V11.26c-.658.742-1.162 1.008-1.89 1.008-1.148 0-2.03-.924-2.03-2.142s.882-2.142 2.058-2.142c.7 0 1.176.252 1.82.952zm4.102-.546c-1.694 0-3.08 1.344-3.08 2.996 0 1.75 1.33 3.108 3.052 3.108 1.75 0 3.094-1.33 3.094-3.052s-1.344-3.052-3.066-3.052zm-.014.91c1.19 0 2.058.896 2.058 2.142 0 1.26-.868 2.142-2.072 2.142-1.19 0-2.03-.91-2.03-2.17 0-1.204.868-2.114 2.044-2.114zm8.862-5.18v5.222c-.574-.658-1.204-.952-2.03-.952-1.596 0-2.772 1.274-2.772 3.024 0 1.778 1.19 3.08 2.8 3.08.826 0 1.512-.336 1.988-.966v.798h1.008V2.804zm-1.862 5.18a2 2 0 0 1 1.33.532c.406.364.588.868.588 1.582 0 1.302-.77 2.17-1.932 2.17-1.106 0-1.904-.924-1.904-2.198 0-1.176.826-2.086 1.918-2.086zm9.814 2.324v-.168c0-1.848-1.092-3.066-2.772-3.066-1.666 0-2.814 1.246-2.814 3.066 0 1.792 1.176 3.038 2.856 3.038 1.176 0 2.03-.518 2.674-1.652l-.84-.476c-.56.896-1.022 1.218-1.792 1.218-1.05 0-1.792-.77-1.848-1.96zm-4.466-.84c.14-.868.868-1.498 1.708-1.498.854 0 1.526.588 1.708 1.498zm6.524 2.296a.693.693 0 1 0 .014 1.386.693.693 0 0 0-.014-1.386zm0-4.69a.684.684 0 0 0-.686.672c0 .392.308.7.686.7a.687.687 0 0 0 0-1.372z"/></svg>