<svg width="60" height="17" xmlns="http://www.w3.org/2000/svg"><path d="M6.336 4.334c-.54-.936-1.2-1.344-2.16-1.344-1.368 0-2.4.912-2.4 2.124 0 .9.528 1.56 1.644 2.028 1.08.456 1.08.456 1.356.636.36.252.552.6.552 1.056 0 .768-.552 1.332-1.308 1.332-.492 0-.948-.24-1.152-.624-.12-.204-.168-.396-.228-.876l-1.224.276c.084.6.204.912.468 1.296.468.684 1.212 1.068 2.088 1.068 1.476 0 2.568-1.092 2.568-2.556 0-1.104-.576-1.824-1.872-2.364-1.056-.432-1.056-.432-1.284-.588C3.12 5.618 3 5.39 3 5.126c0-.564.504-.996 1.164-.996.552 0 .828.18 1.2.792zm2.868-1.188H7.992v5.148c0 .78.192 1.356.612 1.884a3.023 3.023 0 0 0 2.352 1.128 3 3 0 0 0 2.34-1.128c.42-.528.612-1.116.612-1.884V3.146h-1.212V7.97c0 .708-.06 1.044-.252 1.38-.288.504-.864.816-1.488.816-.636 0-1.212-.312-1.5-.816-.192-.336-.252-.672-.252-1.38zm7.836 4.752h.564c.876 0 1.548-.228 2.016-.684.432-.408.696-1.044.696-1.692 0-.732-.336-1.452-.876-1.872-.516-.384-1.02-.504-2.244-.504h-1.368v8.004h1.212zm0-1.116v-2.52h.396c.624 0 .984.084 1.272.288.276.204.444.564.444.948s-.156.744-.408.96c-.276.228-.636.324-1.26.324zm8.928-2.496v-1.14h-4.416v8.004h4.416v-1.14h-3.204V7.346h3.108v-1.14h-3.108v-1.92zm4.296 3.456c1.068-.228 1.776-1.128 1.776-2.244 0-.768-.372-1.488-.96-1.884-.504-.336-1.08-.468-2.112-.468h-1.416v8.004h1.212V7.874h.216l2.28 3.276h1.476zm-1.5-.924V4.286h.432c.564 0 .912.084 1.2.276.288.204.468.564.468.948 0 .42-.192.804-.504 1.02-.276.192-.672.288-1.212.288zm9.696-2.484c-.54-.936-1.2-1.344-2.16-1.344-1.368 0-2.4.912-2.4 2.124 0 .9.528 1.56 1.644 2.028 1.08.456 1.08.456 1.356.636.36.252.552.6.552 1.056 0 .768-.552 1.332-1.308 1.332-.492 0-.948-.24-1.152-.624-.12-.204-.168-.396-.228-.876l-1.224.276c.084.6.204.912.468 1.296.468.684 1.212 1.068 2.088 1.068 1.476 0 2.568-1.092 2.568-2.556 0-1.104-.576-1.824-1.872-2.364-1.056-.432-1.056-.432-1.284-.588-.264-.18-.384-.408-.384-.672 0-.564.504-.996 1.164-.996.552 0 .828.18 1.2.792zm5.46-1.344c-2.292 0-4.2 1.872-4.2 4.128 0 1.092.336 2.028 1.008 2.772.792.876 1.98 1.416 3.132 1.416 2.34 0 4.224-1.848 4.224-4.152A4.174 4.174 0 0 0 43.92 2.99zm-.012 1.14c1.68 0 2.964 1.32 2.964 3.024 0 1.692-1.308 3.012-3 3.012-.732 0-1.488-.312-2.052-.852-.6-.576-.888-1.284-.888-2.184 0-1.68 1.32-3 2.976-3zm9.684.156v-1.14h-3.996v8.004h1.212V7.346h2.688v-1.14h-2.688v-1.92zm3.6 0h1.836v-1.14h-4.884v1.14h1.836v6.864h1.212z"/></svg>