<svg width="63" height="74" xmlns="http://www.w3.org/2000/svg"><path d="M15.229 44.311l6.148-6.519c4.505-4.77 6.413-8.427 6.413-12.349 0-6.572-5.3-11.395-12.455-11.395S3.41 18.659 2.933 25.973H10.3c.159-3.657 2.067-5.83 5.247-5.83 2.968 0 5.353 2.332 5.353 5.353 0 2.968-1.696 5.671-8.109 12.985L2.35 50.3h25.705v-5.989zm31.323-30.263c-3.869 0-7.473 1.961-10.07 5.406-2.385 3.233-3.657 7.738-3.657 12.879 0 5.777 1.166 9.964 3.657 13.462 2.491 3.445 6.148 5.406 10.07 5.406 3.869 0 7.526-2.014 10.017-5.406 2.438-3.445 3.657-7.738 3.657-13.197 0-5.459-1.219-9.752-3.657-13.144-2.544-3.445-6.148-5.406-10.017-5.406zm0 6.095c3.975 0 6.784 5.194 6.784 12.455 0 7.314-2.809 12.508-6.784 12.508-4.028 0-6.837-5.194-6.837-12.667 0-7.102 2.862-12.296 6.837-12.296z"/></svg>