<svg width="63" height="73" xmlns="http://www.w3.org/2000/svg"><path d="M15.536 43.474l6.032-6.396c4.42-4.68 6.292-8.268 6.292-12.116 0-6.448-5.2-11.18-12.22-11.18-7.02 0-11.7 4.524-12.168 11.7H10.7c.156-3.588 2.028-5.72 5.148-5.72 2.912 0 5.252 2.288 5.252 5.252 0 2.912-1.664 5.564-7.956 12.74L2.9 49.35h25.22v-5.876zm30.732-29.692c-3.796 0-7.332 1.924-9.88 5.304-2.34 3.172-3.588 7.592-3.588 12.636 0 5.668 1.144 9.776 3.588 13.208 2.444 3.38 6.032 5.304 9.88 5.304 3.796 0 7.384-1.976 9.828-5.304 2.392-3.38 3.588-7.592 3.588-12.948 0-5.356-1.196-9.568-3.588-12.896-2.496-3.38-6.032-5.304-9.828-5.304zm0 5.98c3.9 0 6.656 5.096 6.656 12.22 0 7.176-2.756 12.272-6.656 12.272-3.952 0-6.708-5.096-6.708-12.428 0-6.968 2.808-12.064 6.708-12.064z"/></svg>