<svg width="65" height="13" xmlns="http://www.w3.org/2000/svg"><path d="M12.597 3.104a2.627 2.627 0 0 0-1.764-.666c-1.08 0-1.873.738-1.873 1.746 0 .792.396 1.224 1.476 1.62.486.18.72.279.838.36.216.153.324.36.324.603 0 .495-.388.846-.928.846s-.99-.288-1.26-.801l-.755.729c.54.783 1.188 1.143 2.06 1.143 1.242 0 2.088-.801 2.088-1.98 0-.531-.18-.963-.53-1.26-.27-.234-.54-.36-1.197-.603-.703-.261-.91-.432-.91-.756 0-.369.37-.666.846-.666.378 0 .657.135.973.486zm2.412 1.755V2.537h-1.17V8.54h1.17V5.876h2.538V8.54h1.17V2.537h-1.17v2.322zm8-2.457c-1.782 0-3.221 1.386-3.221 3.096 0 1.8 1.377 3.177 3.177 3.177 1.826 0 3.24-1.359 3.24-3.132 0-1.764-1.404-3.141-3.195-3.141zm-.018 1.071c1.117 0 2.008.918 2.008 2.061 0 1.143-.9 2.07-1.998 2.07-1.117 0-2.008-.927-2.008-2.088 0-1.116.91-2.043 1.998-2.043zm5.463 2.844h.756c.712 0 1.197-.171 1.54-.531.305-.333.485-.819.485-1.341 0-.576-.224-1.098-.611-1.449-.378-.333-.801-.459-1.584-.459h-1.755V8.54h1.17zm0-1.017V3.554h.405c.432 0 .684.054.864.189.19.144.306.405.306.693 0 .576-.369.864-1.098.864zm5.895 3.24h1.17V4.481l3.654 4.176h.81v-6.12h-1.17v4.041L35.16 2.402h-.81zm9.928-6.138c-1.782 0-3.223 1.386-3.223 3.096 0 1.8 1.377 3.177 3.177 3.177 1.828 0 3.24-1.359 3.24-3.132 0-1.764-1.403-3.141-3.194-3.141zm-.019 1.071c1.116 0 2.008.918 2.008 2.061 0 1.143-.9 2.07-1.998 2.07-1.117 0-2.008-.927-2.008-2.088 0-1.116.91-2.043 1.998-2.043zm4.842-.936h-1.233l2.125 6.12h.819l1.404-3.924 1.331 3.924h.82l2.258-6.12h-1.233l-1.44 4.086-1.395-4.14h-.639l-1.467 4.14z"/></svg>