<svg width="30" height="20" xmlns="http://www.w3.org/2000/svg"><path d="M10.875.53c-2.134 0-3.74 1.474-3.74 3.432 0 2.046 1.54 3.52 3.696 3.52 2.178 0 3.762-1.474 3.762-3.498 0-1.98-1.584-3.454-3.718-3.454zm-.022 1.584c1.056 0 1.914.858 1.914 1.892 0 1.056-.858 1.914-1.892 1.914a1.92 1.92 0 0 1-1.914-1.936c0-1.012.858-1.87 1.892-1.87zm7.92-1.892l-8.734 15.092 1.166.682L19.939.882zm.396 8.448c-2.134 0-3.74 1.474-3.74 3.41 0 2.046 1.54 3.52 3.696 3.52s3.74-1.474 3.74-3.476c0-1.98-1.584-3.454-3.696-3.454zm-.022 1.562c1.056 0 1.892.858 1.892 1.892 0 1.056-.858 1.914-1.892 1.914-1.056 0-1.892-.858-1.892-1.936 0-1.012.858-1.87 1.892-1.87z"/></svg>