<svg width="246" height="42" xmlns="http://www.w3.org/2000/svg"><path d="M5.751.002H3.617V16.04h2.134zm11.132 11.924v-.506c0-1.21-.264-2.288-.748-3.058-.726-1.122-2.134-1.826-3.652-1.826-2.684 0-4.466 1.958-4.466 4.906 0 2.948 1.826 4.884 4.576 4.884 1.166 0 2.31-.396 3.124-1.122.484-.396.77-.77 1.254-1.584l-1.804-1.012c-.858 1.386-1.43 1.804-2.508 1.804-1.364 0-2.288-.968-2.398-2.486zm-6.49-1.738c.264-1.056 1.1-1.716 2.134-1.716 1.1 0 1.87.616 2.156 1.716zm17.776-3.41h-2.134v1.056a3.82 3.82 0 0 0-2.904-1.298c-2.508 0-4.334 2.09-4.334 4.95 0 2.794 1.826 4.84 4.312 4.84 1.166 0 2.046-.396 2.926-1.32v1.298c0 .902-.132 1.496-.418 1.936-.374.572-1.122.946-1.936.946-.858 0-1.694-.418-2.068-1.078-.22-.374-.286-.726-.352-1.518h-2.09c.022 2.794 1.738 4.51 4.51 4.51 1.562 0 2.926-.66 3.696-1.782.616-.88.792-1.694.792-3.498zM23.527 8.45c1.54 0 2.596 1.21 2.596 2.992 0 1.76-1.056 2.97-2.596 2.97a2.555 2.555 0 0 1-1.782-.748c-.528-.528-.77-1.21-.77-2.222 0-1.804 1.012-2.992 2.552-2.992zm15.752 3.476v-.506c0-1.21-.264-2.288-.748-3.058-.726-1.122-2.134-1.826-3.652-1.826-2.684 0-4.466 1.958-4.466 4.906 0 2.948 1.826 4.884 4.576 4.884 1.166 0 2.31-.396 3.124-1.122.484-.396.77-.77 1.254-1.584l-1.804-1.012c-.858 1.386-1.43 1.804-2.508 1.804-1.364 0-2.288-.968-2.398-2.486zm-6.49-1.738c.264-1.056 1.1-1.716 2.134-1.716 1.1 0 1.87.616 2.156 1.716zm8.822-3.41v9.262h2.134v-4.466c0-2.288.528-3.124 1.98-3.124.66 0 1.166.242 1.43.66.22.352.286.792.286 1.76v5.17h2.134v-5.676c0-1.232-.154-1.958-.572-2.574-.528-.77-1.562-1.254-2.728-1.254-1.056 0-1.672.264-2.53 1.1v-.858zM59.101.002v7.854c-.902-.946-1.738-1.32-2.904-1.32-2.486 0-4.356 2.09-4.356 4.862 0 2.838 1.87 4.928 4.4 4.928 1.122 0 1.958-.374 2.86-1.254v.968h2.134V.002zM56.593 8.45c1.562 0 2.64 1.232 2.64 2.992s-1.078 2.97-2.662 2.97c-1.496 0-2.552-1.254-2.552-3.036 0-1.672 1.1-2.926 2.574-2.926zm14.168-1.672v1.078c-.924-.968-1.716-1.32-2.904-1.32-2.486 0-4.356 2.068-4.356 4.862 0 2.838 1.87 4.928 4.422 4.928 1.122 0 1.848-.33 2.838-1.254v.968h2.134V6.778zM68.253 8.45c1.562 0 2.64 1.232 2.64 2.992s-1.078 2.97-2.662 2.97c-1.496 0-2.552-1.254-2.552-3.014 0-1.694 1.1-2.948 2.574-2.948zm7.348-1.672v9.262h2.134v-4.796c0-1.826.55-2.662 1.738-2.662.44 0 .704.11 1.188.462l.99-1.958c-.726-.44-1.122-.572-1.782-.572-.836 0-1.342.264-2.134 1.1v-.836zm10.208 7.524l-3.608 6.776h2.442l7.37-14.3h-2.42l-2.64 5.324-2.816-5.324h-2.486zm19.954 6.776h2.134v-14.3h-2.134V7.79c-.902-.88-1.738-1.254-2.86-1.254-2.53 0-4.4 2.09-4.4 4.928 0 2.772 1.87 4.862 4.356 4.862 1.166 0 2.002-.396 2.904-1.32zM103.255 8.45c1.562 0 2.64 1.21 2.64 2.992 0 1.76-1.078 2.97-2.662 2.97-1.474 0-2.552-1.276-2.552-3.036 0-1.672 1.1-2.926 2.574-2.926zm9.482-1.672h-2.134v5.368c0 1.452.264 2.244.968 3.014.748.77 1.76 1.166 2.97 1.166 1.232 0 2.244-.396 2.992-1.166.704-.77.968-1.562.968-3.014V6.778h-2.134v5.324c0 1.584-.572 2.31-1.804 2.31-1.254 0-1.826-.726-1.826-2.31zm15.29 0v1.078c-.924-.968-1.716-1.32-2.904-1.32-2.486 0-4.356 2.068-4.356 4.862 0 2.838 1.87 4.928 4.422 4.928 1.122 0 1.848-.33 2.838-1.254v.968h2.134V6.778zm-2.508 1.672c1.562 0 2.64 1.232 2.64 2.992s-1.078 2.97-2.662 2.97c-1.496 0-2.552-1.254-2.552-3.014 0-1.694 1.1-2.948 2.574-2.948zm9.482-8.448h-2.134V16.04h2.134zm4.862 6.776h-2.134v9.262h2.134zm-1.078-5.236c-.748 0-1.386.638-1.386 1.386 0 .77.616 1.408 1.408 1.408.77 0 1.386-.638 1.386-1.408 0-.77-.616-1.386-1.408-1.386zm5.962 7.238h1.672V6.778h-1.672V3.39h-2.134v3.388h-.902V8.78h.902v7.26h2.134zm6.05 5.522l-3.608 6.776h2.442l7.37-14.3h-2.42l-2.64 5.324-2.816-5.324h-2.486zm8.734-1.012l-2.244 5.588 1.452.594 2.706-5.434zm15.356-4.928c-.616-1.254-1.43-1.826-2.64-1.826-1.65 0-2.882 1.188-2.882 2.794 0 1.144.44 1.738 1.804 2.398 2.002.99 2.134 1.078 2.134 1.694 0 .594-.44.99-1.1.99-.638 0-.99-.286-1.496-1.21l-1.826.836c.638 1.518 1.738 2.288 3.3 2.288 1.848 0 3.3-1.364 3.3-3.124 0-.88-.374-1.584-1.122-2.09-.418-.286-.836-.506-1.76-.946-.99-.462-1.232-.66-1.232-1.056 0-.374.308-.66.704-.66.44 0 .748.264 1.056.858zm9.328-1.584v1.078c-.924-.968-1.716-1.32-2.904-1.32-2.486 0-4.356 2.068-4.356 4.862 0 2.838 1.87 4.928 4.422 4.928 1.122 0 1.848-.33 2.838-1.254v.968h2.134V6.778zm-2.508 1.672c1.562 0 2.64 1.232 2.64 2.992s-1.078 2.97-2.662 2.97c-1.496 0-2.552-1.254-2.552-3.014 0-1.694 1.1-2.948 2.574-2.948zm9.57.33h2.332V6.778h-2.332V3.742c0-1.518.22-1.958.968-1.958.396 0 .572.066 1.364.462V.068c-.616-.264-.924-.33-1.43-.33-.968 0-1.936.396-2.42 1.012-.44.506-.616 1.254-.616 2.464v3.564h-.77V8.78h.77v7.26h2.134zm11.968 3.146v-.506c0-1.21-.264-2.288-.748-3.058-.726-1.122-2.134-1.826-3.652-1.826-2.684 0-4.466 1.958-4.466 4.906 0 2.948 1.826 4.884 4.576 4.884 1.166 0 2.31-.396 3.124-1.122.484-.396.77-.77 1.254-1.584l-1.804-1.012c-.858 1.386-1.43 1.804-2.508 1.804-1.364 0-2.288-.968-2.398-2.486zm-6.49-1.738c.264-1.056 1.1-1.716 2.134-1.716 1.1 0 1.87.616 2.156 1.716zm21.142-3.41v1.078c-.924-.968-1.716-1.32-2.904-1.32-2.486 0-4.356 2.068-4.356 4.862 0 2.838 1.87 4.928 4.422 4.928 1.122 0 1.848-.33 2.838-1.254v.968h2.134V6.778zm-2.508 1.672c1.562 0 2.64 1.232 2.64 2.992s-1.078 2.97-2.662 2.97c-1.496 0-2.552-1.254-2.552-3.014 0-1.694 1.1-2.948 2.574-2.948zm7.348-1.672v9.262h2.134v-4.466c0-2.288.528-3.124 1.98-3.124.66 0 1.166.242 1.43.66.22.352.286.792.286 1.76v5.17h2.134v-5.676c0-1.232-.154-1.958-.572-2.574-.528-.77-1.562-1.254-2.728-1.254-1.056 0-1.672.264-2.53 1.1v-.858zm17.49-6.776v7.854c-.902-.946-1.738-1.32-2.904-1.32-2.486 0-4.356 2.09-4.356 4.862 0 2.838 1.87 4.928 4.4 4.928 1.122 0 1.958-.374 2.86-1.254v.968h2.134V.002zm-2.508 8.448c1.562 0 2.64 1.232 2.64 2.992s-1.078 2.97-2.662 2.97c-1.496 0-2.552-1.254-2.552-3.036 0-1.672 1.1-2.926 2.574-2.926zM27.817 30.362c-.616-1.254-1.43-1.826-2.64-1.826-1.65 0-2.882 1.188-2.882 2.794 0 1.144.44 1.738 1.804 2.398 2.002.99 2.134 1.078 2.134 1.694 0 .594-.44.99-1.1.99-.638 0-.99-.286-1.496-1.21l-1.826.836c.638 1.518 1.738 2.288 3.3 2.288 1.848 0 3.3-1.364 3.3-3.124 0-.88-.374-1.584-1.122-2.09-.418-.286-.836-.506-1.76-.946-.99-.462-1.232-.66-1.232-1.056 0-.374.308-.66.704-.66.44 0 .748.264 1.056.858zm6.996-1.826c-2.728 0-4.928 2.156-4.928 4.818 0 2.816 2.134 4.972 4.906 4.972 2.816 0 4.972-2.134 4.972-4.906 0-2.75-2.156-4.884-4.95-4.884zm0 1.914c1.672 0 2.772 1.188 2.772 2.992 0 1.782-1.1 2.97-2.772 2.97-1.672 0-2.75-1.188-2.75-3.014 0-1.76 1.122-2.948 2.75-2.948zm9.416.33h2.332v-2.002h-2.332v-3.036c0-1.518.22-1.958.968-1.958.396 0 .572.066 1.364.462v-2.178c-.616-.264-.924-.33-1.43-.33-.968 0-1.936.396-2.42 1.012-.44.506-.616 1.254-.616 2.464v3.564h-.77v2.002h.77v7.26h2.134zm5.742 0h1.672v-2.002h-1.672V25.39h-2.134v3.388h-.902v2.002h.902v7.26h2.134zm8.624-2.002v9.262h2.134v-4.466c0-2.288.528-3.124 1.98-3.124.66 0 1.166.242 1.43.66.22.352.286.792.286 1.76v5.17h2.134v-5.676c0-1.232-.154-1.958-.572-2.574-.528-.77-1.562-1.254-2.728-1.254-1.056 0-1.672.264-2.53 1.1v-.858zm19.096 5.148v-.506c0-1.21-.264-2.288-.748-3.058-.726-1.122-2.134-1.826-3.652-1.826-2.684 0-4.466 1.958-4.466 4.906 0 2.948 1.826 4.884 4.576 4.884 1.166 0 2.31-.396 3.124-1.122.484-.396.77-.77 1.254-1.584l-1.804-1.012c-.858 1.386-1.43 1.804-2.508 1.804-1.364 0-2.288-.968-2.398-2.486zm-6.49-1.738c.264-1.056 1.1-1.716 2.134-1.716 1.1 0 1.87.616 2.156 1.716zm11.704.836l-4.114 5.016h2.618l2.772-3.454 2.728 3.454h2.53l-3.96-5.016 3.432-4.246h-2.618l-2.112 2.706-2.046-2.706h-2.552zm10.186-2.244h1.672v-2.002h-1.672V25.39h-2.134v3.388h-.902v2.002h.902v7.26h2.134zm10.824 0h1.672v-2.002h-1.672V25.39h-2.134v3.388h-.902v2.002h.902v7.26h2.134zm7.612-2.244c-2.728 0-4.928 2.156-4.928 4.818 0 2.816 2.134 4.972 4.906 4.972 2.816 0 4.972-2.134 4.972-4.906 0-2.75-2.156-4.884-4.95-4.884zm0 1.914c1.672 0 2.772 1.188 2.772 2.992 0 1.782-1.1 2.97-2.772 2.97-1.672 0-2.75-1.188-2.75-3.014 0-1.76 1.122-2.948 2.75-2.948zm14.828-8.448h-2.134V38.04h2.134v-.968c.902.88 1.738 1.254 2.86 1.254 2.53 0 4.4-2.09 4.4-4.928 0-2.772-1.87-4.862-4.356-4.862-1.166 0-2.002.374-2.904 1.32zm2.53 8.448c1.474 0 2.552 1.276 2.552 3.036 0 1.672-1.1 2.926-2.574 2.926-1.584 0-2.64-1.21-2.64-2.992 0-1.76 1.078-2.97 2.662-2.97zm13.816-1.672v1.078c-.924-.968-1.716-1.32-2.904-1.32-2.486 0-4.356 2.068-4.356 4.862 0 2.838 1.87 4.928 4.422 4.928 1.122 0 1.848-.33 2.838-1.254v.968h2.134v-9.262zm-2.508 1.672c1.562 0 2.64 1.232 2.64 2.992s-1.078 2.97-2.662 2.97c-1.496 0-2.552-1.254-2.552-3.014 0-1.694 1.1-2.948 2.574-2.948zm9.482-8.448h-2.134V38.04h2.134v-.968c.902.88 1.738 1.254 2.86 1.254 2.53 0 4.4-2.09 4.4-4.928 0-2.772-1.87-4.862-4.356-4.862-1.166 0-2.002.374-2.904 1.32zm2.53 8.448c1.474 0 2.552 1.276 2.552 3.036 0 1.672-1.1 2.926-2.574 2.926-1.584 0-2.64-1.21-2.64-2.992 0-1.76 1.078-2.97 2.662-2.97zm9.922 5.852l-3.608 6.776h2.442l7.37-14.3h-2.42l-2.64 5.324-2.816-5.324h-2.486zm9.35-7.04l.396-5.896h-2.42l.396 5.896zm8.184 1.1c-.616-1.254-1.43-1.826-2.64-1.826-1.65 0-2.882 1.188-2.882 2.794 0 1.144.44 1.738 1.804 2.398 2.002.99 2.134 1.078 2.134 1.694 0 .594-.44.99-1.1.99-.638 0-.99-.286-1.496-1.21l-1.826.836c.638 1.518 1.738 2.288 3.3 2.288 1.848 0 3.3-1.364 3.3-3.124 0-.88-.374-1.584-1.122-2.09-.418-.286-.836-.506-1.76-.946-.99-.462-1.232-.66-1.232-1.056 0-.374.308-.66.704-.66.44 0 .748.264 1.056.858zm13.398 0c-.616-1.254-1.43-1.826-2.64-1.826-1.65 0-2.882 1.188-2.882 2.794 0 1.144.44 1.738 1.804 2.398 2.002.99 2.134 1.078 2.134 1.694 0 .594-.44.99-1.1.99-.638 0-.99-.286-1.496-1.21l-1.826.836c.638 1.518 1.738 2.288 3.3 2.288 1.848 0 3.3-1.364 3.3-3.124 0-.88-.374-1.584-1.122-2.09-.418-.286-.836-.506-1.76-.946-.99-.462-1.232-.66-1.232-1.056 0-.374.308-.66.704-.66.44 0 .748.264 1.056.858zm4.642-8.36h-2.134V38.04h2.134v-3.564l.33-.33 3.058 3.894h2.772l-4.312-5.368 4.026-3.894h-2.882l-2.992 2.992zm9.702 6.776h-2.134v9.262h2.134zm-1.078-5.236c-.748 0-1.386.638-1.386 1.386 0 .77.616 1.408 1.408 1.408.77 0 1.386-.638 1.386-1.408 0-.77-.616-1.386-1.408-1.386zm3.762 5.236v9.262h2.134v-4.466c0-2.288.528-3.124 1.98-3.124.66 0 1.166.242 1.43.66.22.352.286.792.286 1.76v5.17h2.134v-5.676c0-1.232-.154-1.958-.572-2.574-.528-.77-1.562-1.254-2.728-1.254-1.056 0-1.672.264-2.53 1.1v-.858z"/></svg>