<svg width="108" height="42" xmlns="http://www.w3.org/2000/svg"><path d="M3.542 8.78h1.672V6.778H3.542V3.39H1.408v3.388H.506V8.78h.902v7.26h2.134zM6.666.002V16.04H8.8v-4.466c0-1.122.132-1.98.374-2.354.308-.484.924-.77 1.65-.77 1.166 0 1.672.638 1.672 2.112v5.478h2.134v-5.676c0-1.276-.154-1.958-.616-2.574-.55-.792-1.584-1.254-2.684-1.254-1.012 0-1.716.286-2.53 1.012V.002zm19.096 11.924v-.506c0-1.21-.264-2.288-.748-3.058-.726-1.122-2.134-1.826-3.652-1.826-2.684 0-4.466 1.958-4.466 4.906 0 2.948 1.826 4.884 4.576 4.884 1.166 0 2.31-.396 3.124-1.122.484-.396.77-.77 1.254-1.584l-1.804-1.012c-.858 1.386-1.43 1.804-2.508 1.804-1.364 0-2.288-.968-2.398-2.486zm-6.49-1.738c.264-1.056 1.1-1.716 2.134-1.716 1.1 0 1.87.616 2.156 1.716zm10.978-3.41h-2.134v9.262h2.134zm-1.078-5.236c-.748 0-1.386.638-1.386 1.386 0 .77.616 1.408 1.408 1.408.77 0 1.386-.638 1.386-1.408 0-.77-.616-1.386-1.408-1.386zm3.762 5.236v9.262h2.134v-4.796c0-1.826.55-2.662 1.738-2.662.44 0 .704.11 1.188.462l.99-1.958c-.726-.44-1.122-.572-1.782-.572-.836 0-1.342.264-2.134 1.1v-.836zM47.938 8.78h2.332V6.778h-2.332V3.742c0-1.518.22-1.958.968-1.958.396 0 .572.066 1.364.462V.068c-.616-.264-.924-.33-1.43-.33-.968 0-1.936.396-2.42 1.012-.44.506-.616 1.254-.616 2.464v3.564h-.77V8.78h.77v7.26h2.134zm5.698-2.002h-2.134v9.262h2.134zm-1.078-5.236c-.748 0-1.386.638-1.386 1.386 0 .77.616 1.408 1.408 1.408.77 0 1.386-.638 1.386-1.408 0-.77-.616-1.386-1.408-1.386zm3.762 5.236v9.262h2.134v-4.796c0-1.826.55-2.662 1.738-2.662.44 0 .704.11 1.188.462l.99-1.958c-.726-.44-1.122-.572-1.782-.572-.836 0-1.342.264-2.134 1.1v-.836zm12.672 1.584c-.616-1.254-1.43-1.826-2.64-1.826-1.65 0-2.882 1.188-2.882 2.794 0 1.144.44 1.738 1.804 2.398 2.002.99 2.134 1.078 2.134 1.694 0 .594-.44.99-1.1.99-.638 0-.99-.286-1.496-1.21l-1.826.836c.638 1.518 1.738 2.288 3.3 2.288 1.848 0 3.3-1.364 3.3-3.124 0-.88-.374-1.584-1.122-2.09-.418-.286-.836-.506-1.76-.946-.99-.462-1.232-.66-1.232-1.056 0-.374.308-.66.704-.66.44 0 .748.264 1.056.858zm4.708.418h1.672V6.778H73.7V3.39h-2.134v3.388h-.902V8.78h.902v7.26H73.7zM3.564 30.78h2.332v-2.002H3.564v-3.036c0-1.518.22-1.958.968-1.958.396 0 .572.066 1.364.462v-2.178c-.616-.264-.924-.33-1.43-.33-.968 0-1.936.396-2.42 1.012-.44.506-.616 1.254-.616 2.464v3.564H.66v2.002h.77v7.26h2.134zm10.362-2.002v1.078c-.924-.968-1.716-1.32-2.904-1.32-2.486 0-4.356 2.068-4.356 4.862 0 2.838 1.87 4.928 4.422 4.928 1.122 0 1.848-.33 2.838-1.254v.968h2.134v-9.262zm-2.508 1.672c1.562 0 2.64 1.232 2.64 2.992s-1.078 2.97-2.662 2.97c-1.496 0-2.552-1.254-2.552-3.014 0-1.694 1.1-2.948 2.574-2.948zm8.514-1.672h-2.398l4.774 9.9 4.796-9.9h-2.398L22.33 33.97zm13.09-.242c-2.728 0-4.928 2.156-4.928 4.818 0 2.816 2.134 4.972 4.906 4.972 2.816 0 4.972-2.134 4.972-4.906 0-2.75-2.156-4.884-4.95-4.884zm0 1.914c1.672 0 2.772 1.188 2.772 2.992 0 1.782-1.1 2.97-2.772 2.97-1.672 0-2.75-1.188-2.75-3.014 0-1.76 1.122-2.948 2.75-2.948zm7.194-1.672v9.262h2.134v-4.796c0-1.826.55-2.662 1.738-2.662.44 0 .704.11 1.188.462l.99-1.958c-.726-.44-1.122-.572-1.782-.572-.836 0-1.342.264-2.134 1.1v-.836zm9.438 0H47.52v9.262h2.134zm-1.078-5.236c-.748 0-1.386.638-1.386 1.386 0 .77.616 1.408 1.408 1.408.77 0 1.386-.638 1.386-1.408 0-.77-.616-1.386-1.408-1.386zm5.962 7.238h1.672v-2.002h-1.672V25.39h-2.134v3.388h-.902v2.002h.902v7.26h2.134zm11.55 3.146v-.506c0-1.21-.264-2.288-.748-3.058-.726-1.122-2.134-1.826-3.652-1.826-2.684 0-4.466 1.958-4.466 4.906 0 2.948 1.826 4.884 4.576 4.884 1.166 0 2.31-.396 3.124-1.122.484-.396.77-.77 1.254-1.584l-1.804-1.012c-.858 1.386-1.43 1.804-2.508 1.804-1.364 0-2.288-.968-2.398-2.486zm-6.49-1.738c.264-1.056 1.1-1.716 2.134-1.716 1.1 0 1.87.616 2.156 1.716zm16.456 10.89v-6.072c.902.924 1.738 1.32 2.904 1.32 2.486 0 4.356-2.09 4.356-4.862 0-2.838-1.87-4.928-4.4-4.928-1.122 0-1.958.374-2.86 1.254v-1.012H73.92v14.3zm2.53-12.628c1.496 0 2.552 1.254 2.552 3.036 0 1.672-1.1 2.926-2.574 2.926-1.562 0-2.64-1.232-2.64-2.992s1.078-2.97 2.662-2.97zm9.152-1.672h-2.134v14.3h2.134zm-1.078-5.236c-.748 0-1.386.638-1.386 1.386 0 .77.616 1.408 1.408 1.408.77 0 1.386-.638 1.386-1.408 0-.77-.616-1.386-1.408-1.386zm5.478 5.72l.396-5.896h-2.42l.396 5.896zm8.184 1.1c-.616-1.254-1.43-1.826-2.64-1.826-1.65 0-2.882 1.188-2.882 2.794 0 1.144.44 1.738 1.804 2.398 2.002.99 2.134 1.078 2.134 1.694 0 .594-.44.99-1.1.99-.638 0-.99-.286-1.496-1.21l-1.826.836c.638 1.518 1.738 2.288 3.3 2.288 1.848 0 3.3-1.364 3.3-3.124 0-.88-.374-1.584-1.122-2.09-.418-.286-.836-.506-1.76-.946-.99-.462-1.232-.66-1.232-1.056 0-.374.308-.66.704-.66.44 0 .748.264 1.056.858z"/></svg>