<svg width="47" height="17" xmlns="http://www.w3.org/2000/svg"><path d="M7.576 3.578c-.72-.42-1.308-.588-2.088-.588a4.202 4.202 0 0 0-4.224 4.2 4.12 4.12 0 0 0 4.14 4.116c.78 0 1.464-.192 2.172-.6V9.254c-.792.66-1.368.912-2.16.912-1.656 0-2.94-1.308-2.94-2.988 0-1.704 1.296-3.048 2.928-3.048.804 0 1.416.252 2.172.876zm5.316-.588c-2.292 0-4.2 1.872-4.2 4.128 0 1.092.336 2.028 1.008 2.772.792.876 1.98 1.416 3.132 1.416 2.34 0 4.224-1.848 4.224-4.152a4.174 4.174 0 0 0-4.164-4.164zm-.012 1.14c1.68 0 2.964 1.32 2.964 3.024 0 1.692-1.308 3.012-3 3.012-.732 0-1.488-.312-2.052-.852-.6-.576-.888-1.284-.888-2.184 0-1.68 1.32-3 2.976-3zm7.896.156h1.836v-1.14h-4.884v1.14h1.836v6.864h1.212zm5.124 0h1.836v-1.14h-4.884v1.14h1.836v6.864H25.9zm6.72-1.296c-2.292 0-4.2 1.872-4.2 4.128 0 1.092.336 2.028 1.008 2.772.792.876 1.98 1.416 3.132 1.416 2.34 0 4.224-1.848 4.224-4.152A4.174 4.174 0 0 0 32.62 2.99zm-.012 1.14c1.68 0 2.964 1.32 2.964 3.024 0 1.692-1.308 3.012-3 3.012-.732 0-1.488-.312-2.052-.852-.6-.576-.888-1.284-.888-2.184 0-1.68 1.32-3 2.976-3zm5.688 7.02h1.212V5.546l5.832 6.096V3.146h-1.212v5.556l-5.832-6.096z"/></svg>